<?xml version="1.0" encoding="UTF-8"?>
<svg width="32px" height="32px" viewBox="0 0 32 32" version="1.1" xmlns="http://www.w3.org/2000/svg" xmlns:xlink="http://www.w3.org/1999/xlink">
    <!-- Generator: Sketch 51.3 (57544) - http://www.bohemiancoding.com/sketch -->
    <title>_ / Atoms / Icons / social / reddit</title>
    <desc>Created with Sketch.</desc>
    <defs>
        <rect id="path-1" x="-2.30926389e-13" y="2.84217094e-14" width="32" height="32" rx="2.66666667"></rect>
        <path d="M3.83489251,8.70065699 C3.50009546,8.42503878 3.08679216,8.26694954 2.65668792,8.26694954 C1.60250487,8.26694954 0.744434686,9.16438544 0.744434686,10.267497 C0.744434686,10.9068802 1.04104777,11.4961219 1.51880561,11.8672324 C1.91652984,10.6775709 2.72389171,9.59649603 3.83489251,8.70065699 Z M6.77658559,12.1744685 C6.77658559,13.0859567 7.48650197,13.8269003 8.35831838,13.8269003 C9.23013479,13.8269003 9.93944022,13.0859567 9.93944022,12.1744685 C9.93944022,11.2613833 9.23013479,10.5201204 8.35831838,10.5201204 C7.48650197,10.5201204 6.77658559,11.2620221 6.77658559,12.1744685 Z M15.8365726,17.0761931 C15.9819772,16.9241719 15.9819772,16.6779359 15.8377945,16.5259148 C15.6920845,16.3748517 15.4565657,16.3748517 15.3114666,16.5259148 C14.6605063,17.2061776 13.5818855,17.5370472 12.013288,17.5370472 C12.0084005,17.5370472 12.0050403,17.5392828 12.0001527,17.5392828 C11.9952652,17.5392828 11.991905,17.5370472 11.9870175,17.5370472 C10.417809,17.5370472 9.33918821,17.2061776 8.68944977,16.5259148 C8.54435068,16.3748517 8.30822101,16.3748517 8.16312192,16.5259148 C8.01802283,16.6779359 8.01802283,16.9241719 8.16251098,17.0761931 C8.95979228,17.9094352 10.2103937,18.3140798 11.9870175,18.3140798 C11.991905,18.3140798 11.9952652,18.3118441 12.0001527,18.3118441 C12.0050403,18.3118441 12.0084005,18.3140798 12.013288,18.3140798 C13.7896063,18.3140798 15.0411241,17.9094352 15.8365726,17.0761931 Z M15.648402,13.8269003 C16.5196075,13.8269003 17.2289129,13.0859567 17.2289129,12.1744685 C17.2289129,11.2613833 16.5196075,10.5201204 15.648402,10.5201204 C14.7762801,10.5201204 14.0672802,11.2620221 14.0672802,12.1744685 C14.0672802,13.0859567 14.7765856,13.8269003 15.648402,13.8269003 Z M20.1990149,3.76444019 C20.9859101,3.76444019 21.6261789,3.09407793 21.6261789,2.27009764 C21.6261789,1.44643672 20.9859101,0.776393832 20.1990149,0.776393832 C19.4108977,0.776393832 18.7687961,1.44643672 18.7687961,2.27009764 C18.7687961,3.0943973 19.4108977,3.76444019 20.1990149,3.76444019 Z M21.3427011,8.26694954 C20.8869373,8.26694954 20.4580549,8.43909116 20.1165375,8.73898166 C21.2214288,9.64216626 22.0187101,10.729948 22.40391,11.9259969 C22.9296269,11.5599964 23.2558708,10.9490373 23.2558708,10.267497 C23.2561763,9.16406606 22.3981061,8.26694954 21.3427011,8.26694954 Z M22.5957463,12.7106944 C22.6409561,12.9872707 22.6696705,13.2667214 22.6696705,13.5519208 C22.6696705,17.658728 17.860934,21 11.9500554,21 C6.0397877,21 1.23166215,17.658728 1.23166215,13.5519208 C1.23166215,13.2501141 1.26495857,12.9524592 1.31627783,12.6589561 C0.509526901,12.1652067 0,11.2588284 0,10.267497 C0,8.73578794 1.19133988,7.48863947 2.65607698,7.48863947 C3.32536561,7.48863947 3.96257971,7.76745141 4.45194547,8.23948353 C6.34251021,6.95049731 8.9151934,6.14695684 11.7551644,6.11054841 L13.4095995,0.64289625 C13.4685555,0.448717949 13.6613082,0.333743955 13.8491733,0.381969158 L18.1777082,1.44707546 C18.4944824,0.602016607 19.2786284,0 20.1984039,0 C21.3958532,0 22.3700027,1.01879734 22.3700027,2.27073638 C22.3700027,3.52395292 21.3958532,4.54275025 20.1984039,4.54275025 C18.9991218,4.54275025 18.0243614,3.52395292 18.0243614,2.27073638 C18.0243614,2.24965782 18.0292489,2.23113423 18.0307763,2.21037503 L14.0144335,1.22159869 L12.5316736,6.12428141 C15.2470121,6.2255224 17.7002558,7.02427229 19.5117034,8.27876631 C20.0038184,7.78118441 20.6477529,7.4883201 21.3427011,7.4883201 C22.8080492,7.4883201 24,8.73546856 24,10.2671777 C24,11.3067342 23.4565657,12.2313167 22.5957463,12.7106944 Z" id="path-3"></path>
    </defs>
    <g id="_-/-Atoms-/-Icons-/-social-/-reddit" stroke="none" stroke-width="1" fill="none" fill-rule="evenodd">
        <g id="_-/-Atoms-/-Colors-/-Black3">
            <mask id="mask-2" fill="white">
                <use xlink:href="#path-1"></use>
            </mask>
            <use id="Mask" fill="#F5F5F5" xlink:href="#path-1"></use>
            <g id="_-/-Atoms-/-Colors-/-Black4" mask="url(#mask-2)" fill="#F9F9F9">
                <rect id="Rectangle" x="0" y="0" width="32" height="32"></rect>
            </g>
        </g>
        <g id="🎨-Icon-Color" transform="translate(4.000000, 6.000000)">
            <mask id="mask-4" fill="white">
                <use xlink:href="#path-3"></use>
            </mask>
            <use id="Mask" fill="#FFFFFF" fill-rule="nonzero" xlink:href="#path-3"></use>
            <g id="_-/-Atoms-/-Colors-/-Black1" mask="url(#mask-4)" fill="#634C6C">
                <g transform="translate(-5.454545, -7.368421)" id="Rectangle">
                    <rect x="0" y="0" width="51.8057285" height="52.8019925"></rect>
                </g>
            </g>
        </g>
    </g>
</svg>