<?xml version="1.0" encoding="UTF-8"?>
<svg width="32px" height="32px" viewBox="0 0 32 32" version="1.1" xmlns="http://www.w3.org/2000/svg" xmlns:xlink="http://www.w3.org/1999/xlink">
    <!-- Generator: Sketch 51.3 (57544) - http://www.bohemiancoding.com/sketch -->
    <title>_ / Atoms / Icons / social / tw</title>
    <desc>Created with Sketch.</desc>
    <defs>
        <rect id="path-1" x="0.666666667" y="5.68434189e-14" width="32" height="32" rx="2.66666667"></rect>
        <path d="M38.0216322,22.110223 C37.6093976,30.7732778 30.2085028,37.6745407 21.1390728,37.6745407 C17.7269338,37.6745407 14.550967,36.6977038 11.8944824,35.0177199 C12.4236529,35.0822435 12.9628076,35.1154856 13.5099338,35.1154856 C20.5469375,35.1154856 26.2652736,29.6164267 26.3822778,22.7895993 C26.1773297,22.2083741 26.0662252,21.5857715 26.0662252,20.9383202 C26.0662252,17.7442008 28.7703065,15.1548556 32.1059603,15.1548556 C35.441614,15.1548556 38.1456954,17.7442008 38.1456954,20.9383202 C38.1456954,21.3398243 38.1029689,21.7317724 38.0216322,22.110223 Z" id="path-3"></path>
        <path d="M9.9071929,26.8564501 C11.3023846,27.2971352 12.7923633,27.5354331 14.3399558,27.5354331 C16.9626104,27.5354331 19.4198037,26.8510659 21.5306179,25.6571063 C20.7320188,28.1673457 18.3128695,29.992126 15.4525386,29.992126 C13.0717359,29.992126 10.9965882,28.7278996 9.9071929,26.8564501 Z" id="path-5"></path>
        <path d="M7.26733642,24.3076385 C8.34040082,24.0430873 9.28614117,23.4344066 9.99180802,22.5993191 C11.4869347,23.2643038 13.1511733,23.6351706 14.9050773,23.6351706 C16.5688644,23.6351706 18.1519635,23.3014356 19.5865559,22.6994815 C18.2329385,24.9715503 15.6943324,26.5013123 12.785872,26.5013123 C10.6337823,26.5013123 8.68419272,25.6637478 7.26733642,24.3076385 Z" id="path-7"></path>
        <path d="M3.62083718,23.9504185 C6.00897085,27.123175 9.65785367,29.3531989 13.8564784,29.9536265 C12.7985511,31.5876712 10.9191841,32.6745407 8.77704194,32.6745407 C5.47064831,32.6745407 2.79028698,30.0851956 2.79028698,26.8910761 C2.79028698,25.8173968 3.09314576,24.8120521 3.62083718,23.9504185 Z" id="path-9"></path>
        <path d="M11.8046728,29.0798458 C13.5603806,29.7482966 15.4731091,30.1154856 17.4746137,30.1154856 C19.0604212,30.1154856 20.5904992,29.8849822 22.0309051,29.4567657 L22.0309051,35.5406824 L13.6603098,35.5406824 C12.6670444,36.2483892 11.4392738,36.6666667 10.1103753,36.6666667 C6.85502969,36.6666667 4.20653476,34.1566591 4.12552949,31.0307062 C4.93678181,31.4274039 5.85417459,31.6509186 6.82560706,31.6509186 C8.90157992,31.6509186 10.7307608,30.6301574 11.8046728,29.0798458 Z" id="path-11"></path>
        <path d="M0.806835419,6.85330542 C1.39490135,7.01551001 2.01586976,7.1023622 2.65783664,7.1023622 C6.37387197,7.1023622 9.38631347,4.19221326 9.38631347,0.602362205 C9.38631347,0.465615611 9.38194228,0.329855294 9.37332754,0.195204539 C11.2716245,1.16508311 12.5651214,3.09212646 12.5651214,5.31102362 C12.5651214,8.50514306 9.88476008,11.0944882 6.57836645,11.0944882 C3.82484264,11.0944882 1.50549431,9.29868598 0.806835419,6.85330542 Z" id="path-13"></path>
    </defs>
    <g id="_-/-Atoms-/-Icons-/-social-/-tw" stroke="none" stroke-width="1" fill="none" fill-rule="evenodd">
        <g id="Twitter" transform="translate(-10.666667, -20.000000)">
            <g id="_-/-Atoms-/-Colors-/-Black3" transform="translate(10.000000, 20.000000)">
                <mask id="mask-2" fill="white">
                    <use xlink:href="#path-1"></use>
                </mask>
                <use id="Mask" fill="#F5F5F5" xlink:href="#path-1"></use>
                <g id="_-/-Atoms-/-Colors-/-Black4" mask="url(#mask-2)" fill="#F9F9F9">
                    <g transform="translate(0.666667, 0.000000)" id="Rectangle">
                        <rect x="0" y="0" width="32" height="32"></rect>
                    </g>
                </g>
            </g>
            <g id="🎨-Icon-Color-Copy-5" transform="translate(0.000000, 10.333333)">
                <mask id="mask-4" fill="white">
                    <use xlink:href="#path-3"></use>
                </mask>
                <use id="Mask" fill="#B6ABBA" xlink:href="#path-3"></use>
                <g id="_-/-Atoms-/-Colors-/-Black1" mask="url(#mask-4)" fill="#634C6C">
                    <g transform="translate(10.666667, 9.666667)" id="Rectangle">
                        <rect x="0" y="0" width="47.761194" height="47.761194"></rect>
                    </g>
                </g>
            </g>
            <g id="🎨-Icon-Color" transform="translate(18.666667, 0.000000)">
                <mask id="mask-6" fill="white">
                    <use xlink:href="#path-5"></use>
                </mask>
                <use id="Mask" fill="#B6ABBA" xlink:href="#path-5"></use>
                <g id="_-/-Atoms-/-Colors-/-Black1" mask="url(#mask-6)" fill="#634C6C">
                    <g transform="translate(-8.000000, 20.000000)" id="Rectangle">
                        <rect x="0" y="0" width="47.761194" height="47.761194"></rect>
                    </g>
                </g>
            </g>
            <g id="🎨-Icon-Color-Copy" transform="translate(21.333333, 5.333333)">
                <mask id="mask-8" fill="white">
                    <use xlink:href="#path-7"></use>
                </mask>
                <use id="Mask" fill="#B6ABBA" xlink:href="#path-7"></use>
                <g id="_-/-Atoms-/-Colors-/-Black1" mask="url(#mask-8)" fill="#634C6C">
                    <g transform="translate(-10.666667, 14.666667)" id="Rectangle">
                        <rect x="0" y="0" width="47.761194" height="47.761194"></rect>
                    </g>
                </g>
            </g>
            <g id="🎨-Icon-Color-Copy-2" transform="translate(10.666667, 2.333333)">
                <mask id="mask-10" fill="white">
                    <use xlink:href="#path-9"></use>
                </mask>
                <use id="Mask" fill="#B6ABBA" xlink:href="#path-9"></use>
                <g id="_-/-Atoms-/-Colors-/-Black1" mask="url(#mask-10)" fill="#634C6C">
                    <g transform="translate(0.000000, 17.666667)" id="Rectangle">
                        <rect x="0" y="0" width="47.761194" height="47.761194"></rect>
                    </g>
                </g>
            </g>
            <g id="🎨-Icon-Color-Copy-3" transform="translate(9.333333, 2.333333)">
                <mask id="mask-12" fill="white">
                    <use xlink:href="#path-11"></use>
                </mask>
                <use id="Mask" fill="#B6ABBA" xlink:href="#path-11"></use>
                <g id="_-/-Atoms-/-Colors-/-Black1" mask="url(#mask-12)" fill="#634C6C">
                    <g transform="translate(1.333333, 17.666667)" id="Rectangle">
                        <rect x="0" y="0" width="47.761194" height="47.761194"></rect>
                    </g>
                </g>
            </g>
            <g id="🎨-Icon-Color-Copy-4" transform="translate(14.666667, 32.000000)">
                <mask id="mask-14" fill="white">
                    <use xlink:href="#path-13"></use>
                </mask>
                <use id="Mask" fill="#B6ABBA" xlink:href="#path-13"></use>
                <g id="_-/-Atoms-/-Colors-/-Black1" mask="url(#mask-14)" fill="#634C6C">
                    <g transform="translate(-4.000000, -12.000000)" id="Rectangle">
                        <rect x="0" y="0" width="47.761194" height="47.761194"></rect>
                    </g>
                </g>
            </g>
        </g>
    </g>
</svg>