<?xml version="1.0" encoding="UTF-8"?>
<svg width="70px" height="52px" viewBox="0 0 70 52" version="1.1" xmlns="http://www.w3.org/2000/svg" xmlns:xlink="http://www.w3.org/1999/xlink">
    <!-- Generator: Sketch 51.3 (57544) - http://www.bohemiancoding.com/sketch -->
    <title>Crest</title>
    <desc>Created with Sketch.</desc>
    <defs>
        <path d="M61.8999479,69.8935444 L61.6407917,70 L58,52.4825532 L64.3713856,54.16 L72.214575,46.0733476 L72.25,46 L72.2670803,46.0192125 L72.2857143,46 L72.3068671,46.063966 L79.4211241,54.0663265 L86,52.1683673 L83.6478507,63.2606417 L82.92,70 L66,70 L61.9138456,70 L61.8999479,69.8935444 Z M60.790547,93.0722873 C43.7627653,85.0157567 43.9931271,72.1440745 44.0008907,72 L45.5167216,72.0485517 C45.4947211,72.6797241 45.3143174,87.5630345 69,94.5390345 L68.5753913,96 C66.724621,95.4554188 65.0131675,94.8599425 63.430549,94.2240903 C63.8051091,94.5166371 64,94.7460864 64,94.7460864 C64,94.7460864 62.5477649,97.4541707 59.3800771,97.9375094 C56.2191967,98.4208481 54,95.9417137 54,95.9417137 C54,95.9417137 55.6655321,93.5712727 58.9149081,93.0740582 C59.6049454,92.9682481 60.2315798,92.983192 60.7905471,93.0722873 Z M43.9099442,76.9807249 C43.9099442,76.9807249 40.8869379,77.3183992 38.647082,75.1670532 C36.4026596,73.0135834 37.1036135,70 37.1036135,70 C37.1036135,70 39.9804926,70.0021237 42.2819959,72.2108107 C44.5766495,74.4194976 43.9099442,76.9807249 43.9099442,76.9807249 Z M48.7552184,77 C48.7552184,77 46.5781379,75.1661371 47.0732444,71.9160236 C47.5637238,68.6659101 49.9328315,67 49.9328315,67 C49.9328315,67 52.4176184,69.2083522 51.938707,72.376759 C51.4574819,75.5428961 48.7552184,77 48.7552184,77 Z M52.3960843,84 C52.3960843,84 49.9396066,82.4667418 50.0011369,79.2085682 C50.0579341,75.9413754 52.2304259,74 52.2304259,74 C52.2304259,74 55.0513522,75.8579481 54.9992881,79.0394589 C54.9401244,82.2187148 52.3960843,84 52.3960843,84 Z M57.8832303,89 C57.8832303,89 55.284549,87.6848073 55.0244444,84.4172336 C54.7596107,81.1405896 56.734041,79 56.734041,79 C56.734041,79 59.7205146,80.6122449 59.9806192,83.8004535 C60.2359946,86.9886621 57.8832303,89 57.8832303,89 Z M65.1994946,92 C65.1994946,92 62.6103851,91.4733105 61.4916341,88.498286 C60.3792759,85.5232615 61.5022889,83 61.5022889,83 C61.5022889,83 64.5197202,83.6985798 65.6043759,86.596474 C66.6890317,89.4943683 65.1994946,92 65.1994946,92 Z M44.4019233,70 C44.4019233,70 41.6761427,68.6257976 41.0920469,65.4626253 C40.507951,62.301732 42.894727,60 42.894727,60 C42.894727,60 45.297537,61.5952598 45.8930857,64.840474 C46.4886344,68.0856882 44.4019233,70 44.4019233,70 Z M46,83.5196816 C46,83.5196816 43.4430181,84.7898198 40.8504061,83.1992231 C38.2619859,81.6086264 38,78.2286083 38,78.2286083 C38,78.2286083 40.5213518,77.3654756 43.1831281,78.9934982 C45.8407126,80.626199 46,83.5196816 46,83.5196816 Z M51,87.842803 C51,87.842803 48.7281553,89.6283643 45.8361354,88.763518 C42.9441156,87.8964369 42,84.810254 42,84.810254 C42,84.810254 44.3229931,83.4068341 47.2896045,84.2940279 C50.2540848,85.1834564 51,87.842803 51,87.842803 Z M56,92.3325491 C56,92.3325491 54.2510705,94.8983316 51.0687401,94.9976523 C47.8954248,95.0922433 46,92.2970775 46,92.2970775 C46,92.2970775 47.9157088,90.0978353 51.1769213,90.0032442 C54.4381339,89.8991941 56,92.3325491 56,92.3325491 Z M100.090064,76.9807249 C100.090064,76.9807249 99.4232992,74.4194976 101.718157,72.2108107 C104.019865,70.0021237 106.897,70 106.897,70 C106.897,70 107.595733,73.0135834 105.353394,75.1670532 C103.115623,77.3183992 100.090064,76.9807249 100.090064,76.9807249 Z M93.0611799,72.376759 C92.5823649,69.2083522 95.0712779,67 95.0712779,67 C95.0712779,67 97.4375957,68.6659101 97.9279764,71.9160236 C98.418357,75.1615978 96.2440278,77 96.2440278,77 C96.2440278,77 93.5423081,75.5451657 93.0611799,72.376759 Z M89.0007754,79.0405771 C88.9463694,75.8597836 91.7731151,74 91.7731151,74 C91.7731151,74 93.9446236,75.9431921 93.9990296,79.207394 C94.055801,82.4670875 91.6028008,84 91.6028008,84 C91.6028008,84 89.0551814,82.2191163 89.0007754,79.0405771 Z M84.0190295,83.7992742 C84.2766869,80.6103425 87.2645674,79 87.2645674,79 C87.2645674,79 89.2383651,81.1433432 88.9759801,84.4139261 C88.713595,87.686777 86.1181101,89 86.1181101,89 C86.1181101,89 83.7660997,86.9882059 84.0190295,83.7992742 Z M78.395911,86.596474 C79.483486,83.6985798 82.4967083,83 82.4967083,83 C82.4967083,83 83.6205358,85.5232615 82.5095033,88.498286 C81.3963384,91.4733105 78.801086,92 78.801086,92 C78.801086,92 77.3104686,89.4921645 78.395911,86.596474 Z M102.907955,65.4649043 C102.328452,68.6235187 99.595853,70 99.595853,70 C99.595853,70 97.5114736,68.0834093 98.1070106,64.840474 C98.7025475,61.5975387 101.10531,60 101.10531,60 C101.10531,60 103.492039,62.2994531 102.907955,65.4649043 Z M100.818349,78.994251 C103.48152,77.3641345 106,78.2294761 106,78.2294761 C106,78.2294761 105.737877,81.6113247 103.1481,83.1993435 C100.556225,84.7897011 98,83.5197538 98,83.5197538 C98,83.5197538 98.1572739,80.6243675 100.818349,78.994251 Z M96.709517,84.2948529 C99.6754261,83.4057403 102,84.8108956 102,84.8108956 C102,84.8108956 101.056108,87.895982 98.1647727,88.762755 C95.2734375,89.629528 93,87.8423671 93,87.8423671 C93,87.8423671 93.7414773,85.1817314 96.709517,84.2948529 Z M92.8230787,90.0031048 C96.0842912,90.1001071 98,92.2933042 98,92.2933042 C98,92.2933042 96.1045752,95.0945399 92.9312599,94.9975377 C89.7444219,94.9005354 88,92.3335247 88,92.3335247 C88,92.3335247 89.5641199,89.9013708 92.8230787,90.0031048 Z M86.0850919,93.0739568 C89.3344679,93.5732597 91,95.9426372 91,95.9426372 C91,95.9426372 88.7853415,98.4206593 85.6199229,97.9375375 C82.4545042,97.452104 81,94.7475463 81,94.7475463 C81,94.7475463 82.837985,92.5769654 86.0850919,93.0739568 Z M99.9993136,72 C100.005914,72.1655325 100.300749,88.681258 75.4246495,96 L75,94.5389001 C98.6835603,87.5644657 98.5031392,72.6797866 98.4833369,72.0485562 L99.9993136,72 Z" id="path-1"></path>
        <filter x="-0.7%" y="-1.0%" width="101.4%" height="101.9%" filterUnits="objectBoundingBox" id="filter-2">
            <feGaussianBlur stdDeviation="0.5" in="SourceAlpha" result="shadowBlurInner1"></feGaussianBlur>
            <feOffset dx="0" dy="0" in="shadowBlurInner1" result="shadowOffsetInner1"></feOffset>
            <feComposite in="shadowOffsetInner1" in2="SourceAlpha" operator="arithmetic" k2="-1" k3="1" result="shadowInnerInner1"></feComposite>
            <feColorMatrix values="0 0 0 0 0.752604167   0 0 0 0 0.600203081   0 0 0 0 0.0523829605  0 0 0 0.7 0" type="matrix" in="shadowInnerInner1"></feColorMatrix>
        </filter>
    </defs>
    <g id="Mobile" stroke="none" stroke-width="1" fill="none" fill-rule="evenodd">
        <g id="Main-Page-/-iPhone-5-/-SE" transform="translate(-47.000000, -2763.000000)" fill-rule="nonzero">
            <g id="Features" transform="translate(-149.000000, 1566.000000)">
                <g id="Ranking" transform="translate(159.000000, 1139.000000)">
                    <g id="Ranking-Pic">
                        <g id="zoom" transform="translate(0.000000, 12.000000)">
                            <g id="Crest">
                                <use fill="#FAD961" xlink:href="#path-1"></use>
                                <use fill="black" fill-opacity="1" filter="url(#filter-2)" xlink:href="#path-1"></use>
                            </g>
                        </g>
                    </g>
                </g>
            </g>
        </g>
    </g>
</svg>