<?xml version="1.0" encoding="UTF-8"?>
<svg width="20px" height="29px" viewBox="0 0 20 29" version="1.1" xmlns="http://www.w3.org/2000/svg" xmlns:xlink="http://www.w3.org/1999/xlink">
    <!-- Generator: Sketch 51.3 (57544) - http://www.bohemiancoding.com/sketch -->
    <title>_ / Atoms / LOGO / R / Black</title>
    <desc>Created with Sketch.</desc>
    <defs>
        <linearGradient x1="154.784226%" y1="83.5007422%" x2="-56.4383929%" y2="15.9224299%" id="linearGradient-1">
            <stop stop-color="#0A1C40" offset="0%"></stop>
            <stop stop-color="#131D43" offset="25.76%"></stop>
            <stop stop-color="#252048" offset="56.74%"></stop>
            <stop stop-color="#441946" offset="86.52%"></stop>
            <stop stop-color="#7F004E" offset="99.44%"></stop>
        </linearGradient>
        <linearGradient x1="0.00348491517%" y1="50.1682575%" x2="99.9493232%" y2="49.6036038%" id="linearGradient-2">
            <stop stop-color="#232048" offset="0%"></stop>
            <stop stop-color="#421D47" offset="21.94%"></stop>
            <stop stop-color="#691946" offset="46.16%"></stop>
            <stop stop-color="#0A1C40" offset="100%"></stop>
        </linearGradient>
        <linearGradient x1="88.5392067%" y1="106.892071%" x2="33.7503685%" y2="3.52078435%" id="linearGradient-3">
            <stop stop-color="#0A1C40" offset="0%"></stop>
            <stop stop-color="#131E43" offset="18.38%"></stop>
            <stop stop-color="#232048" offset="38.22%"></stop>
            <stop stop-color="#252048" offset="50.18%"></stop>
            <stop stop-color="#441946" offset="65.67%"></stop>
            <stop stop-color="#471846" offset="77.61%"></stop>
            <stop stop-color="#7F004E" offset="99.44%"></stop>
        </linearGradient>
        <linearGradient x1="0.0347911212%" y1="49.9932569%" x2="100.034583%" y2="50.0068963%" id="linearGradient-4">
            <stop stop-color="#0A1C40" offset="0%"></stop>
            <stop stop-color="#131E43" offset="18.38%"></stop>
            <stop stop-color="#232048" offset="38.22%"></stop>
            <stop stop-color="#252048" offset="50.18%"></stop>
            <stop stop-color="#441946" offset="65.67%"></stop>
            <stop stop-color="#471846" offset="77.61%"></stop>
            <stop stop-color="#7F004E" offset="99.44%"></stop>
        </linearGradient>
    </defs>
    <g id="_-/-Atoms-/-LOGO-/-R-/-Black" stroke="none" stroke-width="1" fill="none" fill-rule="evenodd">
        <g id="r-black-copy" fill-rule="nonzero">
            <g id="Group" transform="translate(0.000000, 26.903614)" fill="#21002E">
                <path d="M1.79590361,0.545060241 C1.79590361,0.628915663 1.78192771,0.712771084 1.74698795,0.782650602 C1.71903614,0.85253012 1.67012048,0.915421687 1.61421687,0.964337349 C1.55831325,1.02024096 1.50240964,1.05518072 1.42554217,1.09012048 C1.35566265,1.11807229 1.27879518,1.1460241 1.19493976,1.16 L1.19493976,1.16698795 C1.25783133,1.18096386 1.29975904,1.22289157 1.3486747,1.27180723 C1.38361446,1.32771084 1.41855422,1.39759036 1.43951807,1.48843373 L1.57927711,2.08240964 L1.09012048,2.08240964 L0.985301205,1.5513253 C0.971325301,1.46746988 0.936385542,1.40457831 0.894457831,1.3626506 C0.845542169,1.31373494 0.796626506,1.29975904 0.719759036,1.29975904 L0.642891566,1.29975904 L0.475180723,2.08240964 L0.0139759036,2.08240964 L0.440240964,0.034939759 L1.13204819,0.034939759 C1.24385542,0.034939759 1.3486747,0.0489156627 1.43253012,0.0698795181 C1.51638554,0.0978313253 1.58626506,0.139759036 1.63518072,0.181686747 C1.69108434,0.23060241 1.7260241,0.279518072 1.74698795,0.34939759 C1.78192771,0.412289157 1.79590361,0.475180723 1.79590361,0.545060241 Z M1.30674699,0.628915663 C1.30674699,0.552048193 1.28578313,0.489156627 1.23686747,0.447228916 C1.18795181,0.398313253 1.12506024,0.377349398 1.02722892,0.377349398 L0.838554217,0.377349398 L0.712771084,0.943373494 L0.894457831,0.943373494 C0.964337349,0.943373494 1.02722892,0.936385542 1.07614458,0.922409639 C1.13204819,0.908433735 1.16698795,0.88746988 1.20192771,0.85253012 C1.22987952,0.824578313 1.26481928,0.789638554 1.27879518,0.754698795 C1.29975904,0.698795181 1.30674699,0.663855422 1.30674699,0.628915663 Z" id="Shape"></path>
                <polygon id="Shape" points="4.83566265 0.398313253 4.12987952 0.398313253 4.03204819 0.859518072 4.68891566 0.859518072 4.60506024 1.23686747 3.94819277 1.23686747 3.85036145 1.69807229 4.60506024 1.69807229 4.52819277 2.07542169 3.31228916 2.07542169 3.73855422 0.0279518072 4.90554217 0.0279518072"></polygon>
                <path d="M7.29542169,2.07542169 L6.79228916,2.07542169 L6.53373494,0.0279518072 L7.00192771,0.0279518072 L7.14168675,1.44650602 C7.14168675,1.47445783 7.1486747,1.51638554 7.1486747,1.54433735 C7.1486747,1.57927711 7.1486747,1.61421687 7.14168675,1.64216867 L7.1486747,1.64216867 C7.15566265,1.61421687 7.16963855,1.57927711 7.17662651,1.5513253 C7.19060241,1.52337349 7.20457831,1.48144578 7.23253012,1.43951807 L7.93831325,0.0279518072 L8.44144578,0.0279518072 L7.29542169,2.07542169 Z" id="Shape"></path>
                <path d="M10.8243373,2.07542169 L10.7614458,1.62120482 L10.0346988,1.62120482 L9.79710843,2.07542169 L9.28,2.07542169 L10.4539759,0.0279518072 L10.9990361,0.0279518072 L11.2925301,2.07542169 L10.8243373,2.07542169 Z M10.6566265,0.566024096 C10.6566265,0.552048193 10.6566265,0.538072289 10.6566265,0.510120482 C10.6566265,0.489156627 10.6566265,0.475180723 10.6566265,0.454216867 C10.6566265,0.440240964 10.6566265,0.42626506 10.6566265,0.405301205 C10.6566265,0.384337349 10.6566265,0.384337349 10.6566265,0.377349398 L10.6496386,0.377349398 C10.6496386,0.384337349 10.6426506,0.398313253 10.6426506,0.405301205 C10.6426506,0.412289157 10.6356627,0.433253012 10.6286747,0.454216867 C10.6216867,0.468192771 10.6146988,0.482168675 10.6077108,0.50313253 C10.6007229,0.524096386 10.5937349,0.531084337 10.586747,0.559036145 L10.2163855,1.25783133 L10.7404819,1.25783133 L10.6566265,0.566024096 Z" id="Shape"></path>
                <polygon id="Shape" points="13.4448193 2.07542169 12.9836145 2.07542169 13.4098795 0.0279518072 13.8710843 0.0279518072"></polygon>
                <path d="M17.1903614,2.07542169 L16.7780723,2.07542169 L16.1421687,0.768674699 C16.1351807,0.761686747 16.1281928,0.747710843 16.1281928,0.73373494 C16.1212048,0.719759036 16.1142169,0.705783133 16.1072289,0.684819277 C16.100241,0.670843373 16.093253,0.65686747 16.093253,0.635903614 C16.0862651,0.621927711 16.0862651,0.607951807 16.0792771,0.600963855 L16.0722892,0.600963855 C16.0653012,0.635903614 16.0653012,0.677831325 16.0583133,0.712771084 C16.0513253,0.761686747 16.0443373,0.796626506 16.0373494,0.845542169 L15.7787952,2.06144578 L15.3525301,2.06144578 L15.7787952,0.0139759036 L16.233012,0.0139759036 L16.8409639,1.26481928 C16.8479518,1.27180723 16.8479518,1.28578313 16.8549398,1.29975904 C16.8619277,1.31373494 16.8689157,1.32771084 16.8759036,1.3486747 C16.8828916,1.3626506 16.8898795,1.37662651 16.8968675,1.39759036 C16.9038554,1.41855422 16.9038554,1.42554217 16.9108434,1.43253012 L16.9178313,1.43253012 C16.9178313,1.41855422 16.9178313,1.40457831 16.9248193,1.38361446 C16.9248193,1.36963855 16.9318072,1.3486747 16.9318072,1.32771084 C16.9318072,1.31373494 16.9387952,1.29277108 16.9387952,1.27180723 C16.9387952,1.25783133 16.9457831,1.24385542 16.9457831,1.22289157 L17.2043373,0.00698795181 L17.6306024,0.00698795181 L17.1903614,2.07542169 Z" id="Shape"></path>
            </g>
            <g id="Group">
                <polygon id="Shape" fill="url(#linearGradient-1)" points="4.70987952 0 4.66795181 22.1238554 0.0139759036 25.4221687 0.0139759036 2.51566265"></polygon>
                <polygon id="Shape" fill="url(#linearGradient-2)" points="16.4566265 6.72939759 11.6908434 9.30795181 4.70289157 5.35975904 4.70987952 0"></polygon>
                <polygon id="Shape" fill="url(#linearGradient-3)" points="17.4698795 19.6640964 17.4698795 25.4221687 6.38698795 17.4768675 10.9710843 15.0031325"></polygon>
                <polygon id="Shape" fill="url(#linearGradient-4)" points="16.4566265 6.72939759 16.4566265 12.0542169 6.38698795 17.4768675 6.38698795 12.1660241"></polygon>
            </g>
        </g>
    </g>
</svg>