<?xml version="1.0" encoding="UTF-8"?>
<svg width="32px" height="32px" viewBox="0 0 32 32" version="1.1" xmlns="http://www.w3.org/2000/svg" xmlns:xlink="http://www.w3.org/1999/xlink">
    <!-- Generator: Sketch 51.3 (57544) - http://www.bohemiancoding.com/sketch -->
    <title>_ / Atoms / Icons / Dislike</title>
    <desc>Created with Sketch.</desc>
    <defs>
        <path d="M19.0909091,0 L6.81818182,0 C5.68636364,0 4.71818182,0.65 4.30909091,1.586 L0.190909091,10.751 C0.0681818182,11.05 0,11.362 0,11.7 L0,14.183 L0.0136363636,14.196 L0,14.3 C0,15.73 1.22727273,16.9 2.72727273,16.9 L11.3318182,16.9 L10.0363636,22.841 L9.99545455,23.257 C9.99545455,23.79 10.2272727,24.284 10.5954545,24.635 L12.0409091,26 L21.0272727,17.433 C21.5181818,16.965 21.8181818,16.315 21.8181818,15.6 L21.8181818,2.6 C21.8181818,1.17 20.5909091,0 19.0909091,0 L19.0909091,0 Z M24.5454545,0 L24.5454545,15.6 L30,15.6 L30,0 L24.5454545,0 L24.5454545,0 Z" id="path-1"></path>
    </defs>
    <g id="_-/-Atoms-/-Icons-/-Dislike" stroke="none" stroke-width="1" fill="none" fill-rule="evenodd">
        <g id="_-/-Atoms-/-Colors-/-Grey" transform="translate(1.000000, 3.000000)">
            <mask id="mask-2" fill="white">
                <use xlink:href="#path-1"></use>
            </mask>
            <use id="Mask" fill="#A699AB" xlink:href="#path-1"></use>
            <g id="_-/-Atoms-/-Colors-/-Black2" mask="url(#mask-2)" fill="#A699AB">
                <g transform="translate(-1.000000, -3.000000)" id="Rectangle">
                    <rect x="0" y="0" width="32" height="32"></rect>
                </g>
            </g>
        </g>
    </g>
</svg>