<?xml version="1.0" encoding="UTF-8"?>
<svg width="32px" height="32px" viewBox="0 0 32 32" version="1.1" xmlns="http://www.w3.org/2000/svg" xmlns:xlink="http://www.w3.org/1999/xlink">
    <!-- Generator: Sketch 51.3 (57544) - http://www.bohemiancoding.com/sketch -->
    <title>_ / Atoms / Icons / Review</title>
    <desc>Created with Sketch.</desc>
    <defs>
        <path d="M14.8833333,26 L6,30 L6,26 L4,26 C1.790861,26 2.705415e-16,24.209139 0,22 L0,4 C-2.705415e-16,1.790861 1.790861,4.05812251e-16 4,0 L26,0 C28.209139,-4.05812251e-16 30,1.790861 30,4 L30,22 C30,24.209139 28.209139,26 26,26 L14.8833333,26 Z M23.7577878,10.4182815 L17.3738631,9.87450337 L14.8788939,4.06835645 L12.3839247,9.88327399 L6,10.4182815 L10.8478761,14.5667822 L9.39173746,20.7325244 L14.8788939,17.4610851 L20.3660503,20.7325244 L18.9187906,14.5667822 L23.7577878,10.4182815 Z" id="path-1"></path>
    </defs>
    <g id="_-/-Atoms-/-Icons-/-Review" stroke="none" stroke-width="1" fill="none" fill-rule="evenodd">
        <g id="_-/-Atoms-/-Colors-/-Grey" transform="translate(1.000000, 1.000000)">
            <mask id="mask-2" fill="white">
                <use xlink:href="#path-1"></use>
            </mask>
            <use id="Mask" fill="#D8D8D8" xlink:href="#path-1"></use>
            <g id="_-/-Atoms-/-Colors-/-Black2" mask="url(#mask-2)" fill="#A699AB">
                <g transform="translate(-1.000000, -1.000000)" id="Rectangle">
                    <rect x="0" y="0" width="32" height="32"></rect>
                </g>
            </g>
        </g>
    </g>
</svg>